HIERARCHY
ROOT Hips
{
	OFFSET 0.000000 0.000000 0.000000
	CHANNELS 6 Xposition Yposition Zposition Zrotation Yrotation Xrotation 
	JOINT LowerBack
	{
		OFFSET 0.000000 0.000000 0.000000
		CHANNELS 3 Zrotation Yrotation Xrotation
		JOINT Spine
		{
			OFFSET 0.028270 2.035590 -0.193380
			CHANNELS 3 Zrotation Yrotation Xrotation
			JOINT Spine1
			{
				OFFSET 0.056720 2.048850 -0.042750
				CHANNELS 3 Zrotation Yrotation Xrotation
				JOINT Neck
				{
					OFFSET 0.000000 0.000000 0.000000
					CHANNELS 3 Zrotation Yrotation Xrotation
					JOINT Neck1
					{
						OFFSET -0.054170 1.746240 0.172020
						CHANNELS 3 Zrotation Yrotation Xrotation
						JOINT Head
						{
							OFFSET 0.104070 1.761360 -0.123970
							CHANNELS 3 Zrotation Yrotation Xrotation
							End Site
							{
								OFFSET 0.000000 0.000000 0.000000
							}
						}
					}
				}
				JOINT LeftShoulder
				{
					OFFSET 0.000000 0.000000 0.000000
					CHANNELS 3 Zrotation Yrotation Xrotation
					JOINT LeftArm
					{
						OFFSET 3.362410 1.200890 -0.311210
						CHANNELS 3 Zrotation Yrotation Xrotation
						JOINT LeftForeArm
						{
							OFFSET 4.983000 -0.000000 -0.000000
							CHANNELS 3 Zrotation Yrotation Xrotation
							JOINT LeftHand
							{
								OFFSET 3.483560 -0.000000 -0.000000
								CHANNELS 3 Zrotation Yrotation Xrotation
								JOINT LeftFingerBase
								{
									OFFSET 0.000000 0.000000 0.000000
									CHANNELS 3 Zrotation Yrotation Xrotation
									JOINT LeftHandIndex1
									{
										OFFSET 0.715260 -0.000000 -0.000000
										CHANNELS 3 Zrotation Yrotation Xrotation
										End Site
										{
											OFFSET 0.000000 0.000000 0.000000
										}
									}
								}
								JOINT LThumb
								{
									OFFSET 0.000000 0.000000 0.000000
									CHANNELS 3 Zrotation Yrotation Xrotation
									End Site
									{
										OFFSET 0.000000 0.000000 0.000000
									}
								}
							}
						}
					}
				}
				JOINT RightShoulder
				{
					OFFSET 0.000000 0.000000 0.000000
					CHANNELS 3 Zrotation Yrotation Xrotation
					JOINT RightArm
					{
						OFFSET -3.136600 1.374050 -0.404650
						CHANNELS 3 Zrotation Yrotation Xrotation
						JOINT RightForeArm
						{
							OFFSET -5.241900 -0.000000 -0.000000
							CHANNELS 3 Zrotation Yrotation Xrotation
							JOINT RightHand
							{
								OFFSET -3.444170 -0.000000 -0.000000
								CHANNELS 3 Zrotation Yrotation Xrotation
								JOINT RightFingerBase
								{
									OFFSET 0.000000 0.000000 0.000000
									CHANNELS 3 Zrotation Yrotation Xrotation
									JOINT RightHandIndex1
									{
										OFFSET -0.622530 -0.000000 -0.000000
										CHANNELS 3 Zrotation Yrotation Xrotation
										End Site
										{
											OFFSET 0.000000 0.000000 0.000000
										}
									}
								}
								JOINT RThumb
								{
									OFFSET 0.000000 0.000000 0.000000
									CHANNELS 3 Zrotation Yrotation Xrotation
									End Site
									{
										OFFSET 0.000000 0.000000 0.000000
									}
								}
							}
						}
					}
				}
			}
		}
	}
}
}
MOTION
Frames: 17
Frame Time: 0.008333
26.127719 16.873908 3.932686 170.513155 -88.192411 -142.673276 6.070325 -1.640186 3.618491 0.242120 -1.807980 -2.134531 -6.884937 -1.942468 1.439905 8.754037 2.583843 2.849817 -4.807847 -0.407049 2.444210 0.000000 0.000000 0.000000 -9.953907 -6.031505 2.114145 -58.806196 -13.038706 12.521143 -3.306854 -17.322510 -0.005805 4.159083 1.577094 0.056316 -0.073691 0.063523 -0.000000 0.000000 0.000000 0.000000 0.000000 0.000000 0.000000 19.201375 -2.062646 0.394283 54.586028 7.007402 -14.997976 3.717058 11.044967 0.010740 0.265228 5.712429 0.008365 0.102671 -0.041856 0.000000 0.000000 0.000000 0.000000 0.000000 0.000000 0.000000 
25.981113 16.875807 3.891115 177.158859 -88.632043 -149.328314 6.543536 -1.629982 3.724367 0.343196 -1.804999 -2.105188 -6.855870 -1.939728 1.455014 9.004322 2.742943 2.939063 -4.781913 -0.405578 2.466565 0.000000 0.000000 0.000000 -9.862718 -5.846416 2.064969 -59.205295 -12.854035 11.679066 -3.250899 -17.083902 -0.006007 4.514779 1.473907 0.056896 -0.071092 0.063137 -0.000000 0.000000 0.000000 0.000000 0.000000 0.000000 0.000000 19.285552 -1.941250 0.358986 54.672910 7.313369 -15.342036 3.703397 10.812781 0.010506 -0.005520 5.682077 -0.005239 0.102909 -0.041433 0.000000 0.000000 0.000000 0.000000 0.000000 0.000000 0.000000 
25.836224 16.880971 3.848836 -166.491110 -89.317314 -165.695732 7.082160 -1.695308 3.811554 0.481230 -1.869603 -2.073590 -6.819784 -2.004115 1.474464 9.311136 2.888960 3.039750 -4.743698 -0.403616 2.492246 0.000000 0.000000 0.000000 -9.686952 -5.698911 2.022813 -59.687813 -12.694959 10.894117 -3.197968 -16.902154 -0.006220 4.839497 1.360316 0.055982 -0.069371 0.063250 -0.000000 0.000000 0.000000 0.000000 0.000000 0.000000 0.000000 19.367578 -1.857946 0.309710 54.810446 7.665965 -15.680879 3.685344 10.629526 0.010235 -0.260694 5.640221 -0.017842 0.102817 -0.040711 0.000000 0.000000 0.000000 0.000000 0.000000 0.000000 0.000000 
25.693337 16.889018 3.805525 71.229638 -89.485564 -43.461508 6.896311 -1.898855 3.869436 0.529380 -2.061330 -2.055409 -6.732832 -2.198297 1.510966 9.698868 3.016335 3.141368 -4.685139 -0.401122 2.517504 0.000000 0.000000 0.000000 -9.412553 -5.638585 1.971674 -60.229264 -12.542532 10.197112 -3.169714 -16.824103 -0.006399 5.102034 1.251230 0.054077 -0.070231 0.063165 -0.000000 0.000000 0.000000 0.000000 0.000000 0.000000 0.000000 19.472657 -1.839488 0.261795 55.011054 8.025317 -15.994633 3.641963 10.519738 0.009811 -0.492486 5.587284 -0.028946 0.101100 -0.039469 -0.000000 0.000000 0.000000 0.000000 0.000000 0.000000 0.000000 
25.552093 16.899670 3.761335 130.399826 -89.566313 -102.595308 6.888694 -1.659311 4.009833 0.462871 -1.850568 -2.022382 -6.707087 -1.987037 1.529012 10.062148 3.133535 3.232017 -4.640072 -0.398455 2.539259 0.000000 0.000000 0.000000 -9.053143 -5.378124 1.851680 -60.776531 -12.359429 9.632031 -3.115166 -16.882837 -0.006299 5.277652 1.159730 0.051663 -0.069907 0.060968 -0.000000 0.000000 0.000000 0.000000 0.000000 0.000000 0.000000 19.589033 -1.626077 0.260639 55.292353 8.476712 -16.255266 3.620602 10.465029 0.009496 -0.689783 5.529666 -0.038243 0.100282 -0.040000 0.000000 0.000000 0.000000 0.000000 0.000000 0.000000 0.000000 
25.408670 16.913628 3.725022 -18.935283 -89.297829 46.924276 7.825288 -1.679362 3.878528 0.625947 -1.923102 -2.030009 -6.682595 -2.059521 1.554309 10.436270 3.222959 3.340401 -4.583051 -0.394922 2.574862 0.000000 0.000000 0.000000 -8.831973 -5.286147 1.794715 -61.355474 -12.156263 9.267135 -3.051155 -17.041945 -0.006404 5.337960 1.110835 0.049858 -0.069296 0.062075 -0.000000 0.000000 0.000000 0.000000 0.000000 0.000000 0.000000 19.606198 -1.601835 0.198839 55.546575 8.901609 -16.426516 3.616393 10.533494 0.009272 -0.847307 5.474094 -0.045444 0.099943 -0.038886 0.000000 0.000000 0.000000 0.000000 0.000000 0.000000 0.000000 
25.271050 16.928573 3.679422 -16.769159 -88.881297 44.775887 8.015119 -1.659256 3.940701 0.667975 -1.910458 -2.001399 -6.644715 -2.045462 1.573089 10.910815 3.276895 3.438901 -4.518506 -0.391735 2.599625 0.000000 0.000000 0.000000 -8.409302 -5.196961 1.721622 -61.916373 -11.960837 9.116292 -3.024599 -17.323185 -0.006287 5.276733 1.097902 0.048761 -0.071323 0.061342 -0.000000 0.000000 0.000000 0.000000 0.000000 0.000000 0.000000 19.737831 -1.526684 0.165536 55.890825 9.387425 -16.550496 3.588312 10.667533 0.008984 -0.960575 5.445433 -0.050542 0.098159 -0.038654 0.000000 0.000000 0.000000 0.000000 0.000000 0.000000 0.000000 
25.134845 16.945733 3.634438 -15.207575 -88.458408 43.242758 8.183953 -1.633856 3.986269 0.706238 -1.893735 -1.977213 -6.607680 -2.027281 1.585912 11.410226 3.321045 3.537410 -4.449981 -0.388405 2.624356 0.000000 0.000000 0.000000 -7.996177 -5.141712 1.654476 -62.437028 -11.749282 9.187295 -3.008478 -17.743115 -0.006099 5.075035 1.142779 0.049071 -0.073923 0.060617 -0.000000 0.000000 0.000000 0.000000 0.000000 0.000000 0.000000 19.873811 -1.446015 0.135125 56.261591 9.851704 -16.544282 3.557092 10.949731 0.008684 -1.048044 5.419663 -0.054340 0.095973 -0.038429 0.000000 0.000000 0.000000 0.000000 0.000000 0.000000 0.000000 
25.000067 16.965092 3.589292 -13.535589 -88.047731 41.605896 8.308744 -1.604264 4.023662 0.735262 -1.872060 -1.954515 -6.573611 -2.003819 1.596231 11.930529 3.341164 3.629513 -4.380859 -0.385056 2.646922 0.000000 0.000000 0.000000 -7.600681 -5.113003 1.593963 -62.889010 -11.536549 9.499387 -3.003743 -18.294664 -0.005839 4.744164 1.234448 0.049782 -0.076894 0.059782 -0.000000 0.000000 0.000000 0.000000 0.000000 0.000000 0.000000 20.028883 -1.377451 0.107448 56.652517 10.340827 -16.439394 3.523994 11.318665 0.008441 -1.097636 5.437170 -0.056736 0.093372 -0.038423 0.000000 0.000000 0.000000 0.000000 0.000000 0.000000 0.000000 
24.866780 16.986772 3.544815 -12.073159 -87.652971 40.186038 8.405416 -1.567878 4.052851 0.758412 -1.843493 -1.934479 -6.542411 -1.973328 1.601632 12.457518 3.351185 3.717514 -4.311992 -0.381724 2.667932 0.000000 0.000000 0.000000 -7.248915 -5.107905 1.542350 -63.257912 -11.325738 10.031203 -3.008224 -18.975349 -0.005516 4.294671 1.366597 0.050298 -0.079890 0.058828 -0.000000 0.000000 0.000000 0.000000 0.000000 0.000000 0.000000 20.192159 -1.305940 0.083242 57.056327 10.835355 -16.218983 3.488316 11.790404 0.008244 -1.124069 5.495630 -0.058530 0.090433 -0.038663 0.000000 0.000000 0.000000 0.000000 0.000000 0.000000 0.000000 
24.734859 17.010806 3.501308 -10.846638 -87.282716 39.007849 8.479316 -1.523492 4.077136 0.776671 -1.806684 -1.916777 -6.514321 -1.934510 1.601667 12.979409 3.358345 3.802261 -4.244614 -0.378456 2.687525 0.000000 0.000000 0.000000 -6.955896 -5.120081 1.500603 -63.532842 -11.124773 10.754136 -3.019562 -19.776199 -0.005144 3.749417 1.523615 0.049416 -0.082647 0.057745 -0.000000 0.000000 0.000000 0.000000 0.000000 0.000000 0.000000 20.358179 -1.224779 0.062560 57.468485 11.335307 -15.884709 3.449723 12.355584 0.008089 -1.138370 5.600970 -0.060223 0.087233 -0.039222 0.000000 0.000000 0.000000 0.000000 0.000000 0.000000 0.000000 
24.604063 17.037218 3.459054 -9.879335 -86.945418 38.094315 8.535564 -1.470330 4.099375 0.791056 -1.760733 -1.901280 -6.489138 -1.886540 1.595151 13.484453 3.368240 3.886407 -4.179629 -0.375306 2.706399 0.000000 0.000000 0.000000 -6.730093 -5.152588 1.468740 -63.710258 -10.927049 11.618719 -3.034147 -20.693416 -0.004727 3.139633 1.686793 0.046335 -0.084932 0.056526 -0.000000 0.000000 0.000000 0.000000 0.000000 0.000000 0.000000 20.519938 -1.130173 0.045867 57.886760 11.846434 -15.445177 3.408135 12.994014 0.007980 -1.152042 5.759396 -0.062415 0.083867 -0.040196 0.000000 0.000000 0.000000 0.000000 0.000000 0.000000 0.000000 
24.474759 17.065925 3.417980 -9.119263 -86.649593 37.388272 8.572881 -1.409530 4.124834 0.801277 -1.706230 -1.886050 -6.467144 -1.829896 1.585663 13.964680 3.392407 3.968185 -4.117186 -0.372234 2.723946 0.000000 0.000000 0.000000 -6.576001 -5.167095 1.446690 -63.789459 -10.777447 12.613333 -3.051070 -21.690634 -0.004286 2.502351 1.835080 0.040655 -0.086811 0.055320 -0.000000 0.000000 0.000000 0.000000 0.000000 0.000000 0.000000 20.672190 -1.009283 0.030091 58.313701 12.361505 -14.910293 3.362338 13.709238 0.007885 -1.176127 5.960522 -0.065706 0.080392 -0.041571 0.000000 0.000000 0.000000 0.000000 0.000000 0.000000 0.000000 
24.346273 17.096766 3.378158 -8.596990 -86.399583 36.920080 8.595554 -1.340799 4.153900 0.808351 -1.642920 -1.872156 -6.447197 -1.764475 1.568776 14.409578 3.429124 4.054125 -4.057635 -0.369335 2.742148 0.000000 0.000000 0.000000 -6.486537 -5.198606 1.432564 -63.781453 -10.626709 13.648996 -3.064636 -22.783146 -0.003827 1.877359 1.952964 0.033074 -0.088101 0.054115 -0.000000 0.000000 0.000000 0.000000 0.000000 0.000000 0.000000 20.805760 -0.868189 0.017568 58.752855 12.896284 -14.300024 3.313385 14.459931 0.007810 -1.216811 6.211700 -0.070496 0.076922 -0.043495 0.000000 0.000000 0.000000 0.000000 0.000000 0.000000 0.000000 
24.218758 17.129470 3.339229 -8.213241 -86.200154 36.586861 8.596344 -1.266971 4.190289 0.810822 -1.572971 -1.857238 -6.429601 -1.692230 1.550337 14.815519 3.483400 4.140126 -4.000906 -0.366549 2.759793 0.000000 0.000000 0.000000 -6.455578 -5.201730 1.424916 -63.693924 -10.525692 14.725656 -3.074931 -23.928973 -0.003371 1.303876 2.025950 0.024494 -0.089078 0.053113 -0.000000 0.000000 0.000000 0.000000 0.000000 0.000000 0.000000 20.919420 -0.700940 0.003998 59.210649 13.449480 -13.624918 3.260327 15.247583 0.007721 -1.279847 6.495182 -0.077086 0.073500 -0.045918 0.000000 0.000000 0.000000 0.000000 0.000000 0.000000 0.000000 
24.092213 17.163685 3.300971 -7.956142 -86.051047 36.372653 8.574553 -1.189237 4.233307 0.808699 -1.497519 -1.842361 -6.413355 -1.614379 1.526643 15.177045 3.553739 4.231184 -3.946772 -0.363940 2.778517 0.000000 0.000000 0.000000 -6.467317 -5.202718 1.421463 -63.544620 -10.435496 15.774133 -3.078107 -25.133057 -0.002926 0.816197 2.046793 0.016313 -0.089750 0.052369 -0.000000 0.000000 0.000000 0.000000 0.000000 0.000000 0.000000 21.006408 -0.512093 -0.009374 59.695383 14.027132 -12.904580 3.204266 16.045055 0.007610 -1.362472 6.806497 -0.085575 0.070191 -0.048909 0.000000 0.000000 0.000000 0.000000 0.000000 0.000000 0.000000 
23.966280 17.198982 3.262991 -7.742013 -85.951555 36.194480 8.523945 -1.110073 4.282087 0.800775 -1.418754 -1.827047 -6.398182 -1.533013 1.499853 15.492650 3.637784 4.325929 -3.895148 -0.361507 2.798042 0.000000 0.000000 0.000000 -6.507961 -5.189549 1.420011 -63.348620 -10.364999 16.775198 -3.073390 -26.374985 -0.002509 0.441910 2.011725 0.009631 -0.090329 0.052011 -0.000000 0.000000 0.000000 0.000000 0.000000 0.000000 0.000000 21.066411 -0.305053 -0.024498 60.214192 14.631554 -12.149679 3.145536 16.843569 0.007461 -1.460254 7.131367 -0.095565 0.067022 -0.052446 0.000000 0.000000 0.000000 0.000000 0.000000 0.000000 0.000000 
